{
  "asset": {
    "version": "2.0",
    "generator": "THREE.GLTFExporter r173"
  },
  "scenes": [
    {
      "name": "Scene",
      "nodes": [
        4,
        5
      ]
    }
  ],
  "scene": 0,
  "nodes": [
    {
      "name": "MagnetCard_1",
      "mesh": 0
    },
    {
      "name": "MagnetCard_2",
      "mesh": 1
    },
    {
      "matrix": [
        0.5147635678317057,
        0.11646802806225923,
        0.8493844244039765,
        0,
        0.4025355191583962,
        -0.9075704180368909,
        -0.11950735166329506,
        0,
        0.7569572320164564,
        0.40342534594601565,
        -0.5140665962504318,
        0,
        1.4193949699401855,
        1.5482650995254517,
        -0.7631591558456421,
        1
      ],
      "name": "MagnetCard",
      "extras": {
        "name": "MagnetCard"
      },
      "children": [
        0,
        1
      ]
    },
    {
      "matrix": [
        -1.3435885655173873e-7,
        0,
        -1.0000001343588565,
        0,
        0,
        1,
        0,
        0,
        1.0000001343588565,
        0,
        -1.3435885655173873e-7,
        0,
        0.703694224357605,
        0.031130313873291016,
        -1.0552198886871338,
        1
      ],
      "name": "Text",
      "extras": {
        "name": "Text"
      },
      "mesh": 2
    },
    {
      "name": "third-draft.glb",
      "children": [
        2,
        3
      ]
    },
    {
      "matrix": [
        1,
        0,
        0,
        0,
        0,
        1,
        0,
        0,
        0,
        0,
        1,
        0,
        0,
        2.4830175286552243,
        0,
        1
      ],
      "name": "AmbientLight"
    }
  ],
  "bufferViews": [
    {
      "buffer": 0,
      "byteOffset": 0,
      "byteLength": 1440,
      "target": 34962,
      "byteStride": 12
    },
    {
      "buffer": 0,
      "byteOffset": 1440,
      "byteLength": 1440,
      "target": 34962,
      "byteStride": 12
    },
    {
      "buffer": 0,
      "byteOffset": 2880,
      "byteLength": 960,
      "target": 34962,
      "byteStride": 8
    },
    {
      "buffer": 0,
      "byteOffset": 3840,
      "byteLength": 648,
      "target": 34963
    },
    {
      "buffer": 0,
      "byteOffset": 4488,
      "byteLength": 48,
      "target": 34962,
      "byteStride": 12
    },
    {
      "buffer": 0,
      "byteOffset": 4536,
      "byteLength": 48,
      "target": 34962,
      "byteStride": 12
    },
    {
      "buffer": 0,
      "byteOffset": 4584,
      "byteLength": 32,
      "target": 34962,
      "byteStride": 8
    },
    {
      "buffer": 0,
      "byteOffset": 4616,
      "byteLength": 12,
      "target": 34963
    },
    {
      "buffer": 0,
      "byteOffset": 4628,
      "byteLength": 17400,
      "target": 34962,
      "byteStride": 12
    },
    {
      "buffer": 0,
      "byteOffset": 22028,
      "byteLength": 17400,
      "target": 34962,
      "byteStride": 12
    },
    {
      "buffer": 0,
      "byteOffset": 39428,
      "byteLength": 11600,
      "target": 34962,
      "byteStride": 8
    },
    {
      "buffer": 0,
      "byteOffset": 51028,
      "byteLength": 11600,
      "target": 34962,
      "byteStride": 8
    },
    {
      "buffer": 0,
      "byteOffset": 62628,
      "byteLength": 8484,
      "target": 34963
    }
  ],
  "buffers": [
    {
      "byteLength": 71112,
      "uri": "data:application/octet-stream;base64,"
    }
  ],
  "accessors": [
    {
      "bufferView": 0,
      "componentType": 5126,
      "count": 120,
      "max": [
        1.5401999950408936,
        1.3312000036239624,
        -0.4717999994754791
      ],
      "min": [
        -2.325200080871582,
        0.07599999755620956,
        -3.731800079345703
      ],
      "type": "VEC3"
    },
    {
      "bufferView": 1,
      "componentType": 5126,
      "count": 120,
      "max": [
        0.9919396042823792,
        0.9076177477836609,
        0.9150205850601196
      ],
      "min": [
        -0.9919523000717163,
        -0.9076825976371765,
        -0.9150251150131226
      ],
      "type": "VEC3"
    },
    {
      "bufferView": 2,
      "componentType": 5126,
      "count": 120,
      "max": [
        0.9968000054359436,
        0.7720000147819519
      ],
      "min": [
        0.006599999964237213,
        0.010200023651123047
      ],
      "type": "VEC2"
    },
    {
      "bufferView": 3,
      "componentType": 5123,
      "count": 324,
      "max": [
        119
      ],
      "min": [
        0
      ],
      "type": "SCALAR"
    },
    {
      "bufferView": 4,
      "componentType": 5126,
      "count": 4,
      "max": [
        1.1141729354858398,
        1.0423829555511475,
        -0.9343833923339844
      ],
      "min": [
        -2.3294711112976074,
        0.1262270212173462,
        -3.6009583473205566
      ],
      "type": "VEC3"
    },
    {
      "bufferView": 5,
      "componentType": 5126,
      "count": 4,
      "max": [
        0.11649758368730545,
        -0.9075811505317688,
        0.40339162945747375
      ],
      "min": [
        0.11649758368730545,
        -0.9075811505317688,
        0.40339162945747375
      ],
      "type": "VEC3"
    },
    {
      "bufferView": 6,
      "componentType": 5126,
      "count": 4,
      "max": [
        1,
        1
      ],
      "min": [
        0,
        0
      ],
      "type": "VEC2"
    },
    {
      "bufferView": 7,
      "componentType": 5123,
      "count": 6,
      "max": [
        3
      ],
      "min": [
        0
      ],
      "type": "SCALAR"
    },
    {
      "bufferView": 8,
      "componentType": 5126,
      "count": 1450,
      "max": [
        0.5652000308036804,
        0.0008999999845400453,
        0.06952500343322754
      ],
      "min": [
        -0.561375081539154,
        -0.0008999999845400453,
        -0.08797500282526016
      ],
      "type": "VEC3"
    },
    {
      "bufferView": 9,
      "componentType": 5126,
      "count": 1450,
      "max": [
        0.9999966621398926,
        1,
        1
      ],
      "min": [
        -0.9999998807907104,
        0,
        -0.9999985694885254
      ],
      "type": "VEC3"
    },
    {
      "bufferView": 10,
      "componentType": 5126,
      "count": 1450,
      "max": [
        1,
        1
      ],
      "min": [
        0,
        0
      ],
      "type": "VEC2"
    },
    {
      "bufferView": 11,
      "componentType": 5123,
      "count": 1450,
      "max": [
        65535,
        65535,
        65535,
        65535
      ],
      "min": [
        65535,
        65535,
        65535,
        65535
      ],
      "type": "VEC4",
      "normalized": true
    },
    {
      "bufferView": 12,
      "componentType": 5123,
      "count": 4242,
      "max": [
        1449
      ],
      "min": [
        0
      ],
      "type": "SCALAR"
    }
  ],
  "materials": [
    {
      "pbrMetallicRoughness": {
        "metallicFactor": 1,
        "roughnessFactor": 0.75,
        "metallicRoughnessTexture": {
          "index": 0,
          "texCoord": 0
        },
        "baseColorTexture": {
          "index": 1,
          "texCoord": 0
        }
      },
      "doubleSided": true,
      "name": "MagnetCard",
      "extensions": {
        "KHR_materials_transmission": {
          "transmissionFactor": 1
        },
        "KHR_materials_volume": {
          "thicknessFactor": 0,
          "attenuationColor": [
            1,
            1,
            1
          ]
        },
        "KHR_materials_ior": {
          "ior": 1.4999999999999998
        }
      }
    },
    {
      "pbrMetallicRoughness": {
        "metallicFactor": 0,
        "roughnessFactor": 0.5,
        "baseColorTexture": {
          "index": 2,
          "texCoord": 0
        }
      },
      "alphaMode": "BLEND",
      "doubleSided": true,
      "name": "DreamCardVector 01 Artboard 2"
    },
    {
      "pbrMetallicRoughness": {
        "metallicFactor": 0,
        "roughnessFactor": 0.9
      },
      "extensions": {
        "KHR_materials_unlit": {}
      }
    }
  ],
  "textures": [
    {
      "sampler": 0,
      "source": 0,
      "name": "Image"
    },
    {
      "sampler": 1,
      "source": 1,
      "name": "MagnetCardMetal.png"
    },
    {
      "sampler": 2,
      "source": 2,
      "name": "DreamCardVector 01 Artboard 2.png"
    }
  ],
  "samplers": [
    {
      "magFilter": 9729,
      "minFilter": 9987,
      "wrapS": 10497,
      "wrapT": 10497
    },
    {
      "magFilter": 9729,
      "minFilter": 9987,
      "wrapS": 10497,
      "wrapT": 10497
    },
    {
      "magFilter": 9729,
      "minFilter": 9987,
      "wrapS": 33071,
      "wrapT": 33071
    }
  ],
  "images": [
    {
      "mimeType": "image/png",
      "uri": "data:image/png;base64,"
    },
    {
      "mimeType": "image/png",
      "uri": "data:image/png;base64,"
    },
    {
      "mimeType": "image/png",
      "uri": "data:image/png;base64,"
    }
  ],
  "meshes": [
    {
      "primitives": [
        {
          "mode": 4,
          "attributes": {
            "POSITION": 0,
            "NORMAL": 1,
            "TEXCOORD_0": 2
          },
          "indices": 3,
          "material": 0
        }
      ]
    },
    {
      "primitives": [
        {
          "mode": 4,
          "attributes": {
            "POSITION": 4,
            "NORMAL": 5,
            "TEXCOORD_0": 6
          },
          "indices": 7,
          "material": 1
        }
      ]
    },
    {
      "primitives": [
        {
          "mode": 4,
          "attributes": {
            "POSITION": 8,
            "NORMAL": 9,
            "TEXCOORD_0": 10,
            "COLOR_0": 11
          },
          "indices": 12,
          "material": 2
        }
      ]
    }
  ],
  "extensionsUsed": [
    "KHR_materials_transmission",
    "KHR_materials_volume",
    "KHR_materials_ior",
    "KHR_materials_unlit"
  ]
}